<svg aria-roledescription="flowchart-v2" role="graphics-document document" viewBox="-8 -8 773.5546875 639.75" style="max-width: 773.555px; background-color: white;" xmlns:xlink="http://www.w3.org/1999/xlink" xmlns="http://www.w3.org/2000/svg" width="100%" id="my-svg"><style>#my-svg{font-family:"trebuchet ms",verdana,arial,sans-serif;font-size:16px;fill:#333;}#my-svg .error-icon{fill:hsl(229.0909090909, 100%, 89.9019607843%);}#my-svg .error-text{fill:rgb(51.5000000001, 42.1363636364, 0);stroke:rgb(51.5000000001, 42.1363636364, 0);}#my-svg .edge-thickness-normal{stroke-width:2px;}#my-svg .edge-thickness-thick{stroke-width:3.5px;}#my-svg .edge-pattern-solid{stroke-dasharray:0;}#my-svg .edge-pattern-dashed{stroke-dasharray:3;}#my-svg .edge-pattern-dotted{stroke-dasharray:2;}#my-svg .marker{fill:#555555;stroke:#555555;}#my-svg .marker.cross{stroke:#555555;}#my-svg svg{font-family:"trebuchet ms",verdana,arial,sans-serif;font-size:16px;}#my-svg .label{font-family:"trebuchet ms",verdana,arial,sans-serif;color:#333;}#my-svg .cluster-label text{fill:rgb(51.5000000001, 42.1363636364, 0);}#my-svg .cluster-label span,#my-svg p{color:rgb(51.5000000001, 42.1363636364, 0);}#my-svg .label text,#my-svg span,#my-svg p{fill:#333;color:#333;}#my-svg .node rect,#my-svg .node circle,#my-svg .node ellipse,#my-svg .node polygon,#my-svg .node path{fill:#fff1b2;stroke:hsl(49.0909090909, 60%, 74.9019607843%);stroke-width:1px;}#my-svg .flowchart-label text{text-anchor:middle;}#my-svg .node .label{text-align:center;}#my-svg .node.clickable{cursor:pointer;}#my-svg .arrowheadPath{fill:#000000;}#my-svg .edgePath .path{stroke:#555555;stroke-width:2.0px;}#my-svg .flowchart-link{stroke:#555555;fill:none;}#my-svg .edgeLabel{background-color:#ffffff;text-align:center;}#my-svg .edgeLabel rect{opacity:0.5;background-color:#ffffff;fill:#ffffff;}#my-svg .labelBkg{background-color:rgba(255, 255, 255, 0.5);}#my-svg .cluster rect{fill:hsl(229.0909090909, 100%, 89.9019607843%);stroke:hsl(229.0909090909, 60%, 79.9019607843%);stroke-width:1px;}#my-svg .cluster text{fill:rgb(51.5000000001, 42.1363636364, 0);}#my-svg .cluster span,#my-svg p{color:rgb(51.5000000001, 42.1363636364, 0);}#my-svg div.mermaidTooltip{position:absolute;text-align:center;max-width:200px;padding:2px;font-family:"trebuchet ms",verdana,arial,sans-serif;font-size:12px;background:hsl(229.0909090909, 100%, 89.9019607843%);border:1px solid hsl(229.0909090909, 60%, 79.9019607843%);border-radius:2px;pointer-events:none;z-index:100;}#my-svg .flowchartTitleText{text-anchor:middle;font-size:18px;fill:#333;}#my-svg :root{--mermaid-font-family:"trebuchet ms",verdana,arial,sans-serif;}</style><g><marker orient="auto" markerHeight="12" markerWidth="12" markerUnits="userSpaceOnUse" refY="5" refX="6" viewBox="0 0 10 10" class="marker flowchart" id="my-svg_flowchart-pointEnd"><path style="stroke-width: 1; stroke-dasharray: 1, 0;" class="arrowMarkerPath" d="M 0 0 L 10 5 L 0 10 z"/></marker><marker orient="auto" markerHeight="12" markerWidth="12" markerUnits="userSpaceOnUse" refY="5" refX="4.5" viewBox="0 0 10 10" class="marker flowchart" id="my-svg_flowchart-pointStart"><path style="stroke-width: 1; stroke-dasharray: 1, 0;" class="arrowMarkerPath" d="M 0 5 L 10 10 L 10 0 z"/></marker><marker orient="auto" markerHeight="11" markerWidth="11" markerUnits="userSpaceOnUse" refY="5" refX="11" viewBox="0 0 10 10" class="marker flowchart" id="my-svg_flowchart-circleEnd"><circle style="stroke-width: 1; stroke-dasharray: 1, 0;" class="arrowMarkerPath" r="5" cy="5" cx="5"/></marker><marker orient="auto" markerHeight="11" markerWidth="11" markerUnits="userSpaceOnUse" refY="5" refX="-1" viewBox="0 0 10 10" class="marker flowchart" id="my-svg_flowchart-circleStart"><circle style="stroke-width: 1; stroke-dasharray: 1, 0;" class="arrowMarkerPath" r="5" cy="5" cx="5"/></marker><marker orient="auto" markerHeight="11" markerWidth="11" markerUnits="userSpaceOnUse" refY="5.2" refX="12" viewBox="0 0 11 11" class="marker cross flowchart" id="my-svg_flowchart-crossEnd"><path style="stroke-width: 2; stroke-dasharray: 1, 0;" class="arrowMarkerPath" d="M 1,1 l 9,9 M 10,1 l -9,9"/></marker><marker orient="auto" markerHeight="11" markerWidth="11" markerUnits="userSpaceOnUse" refY="5.2" refX="-1" viewBox="0 0 11 11" class="marker cross flowchart" id="my-svg_flowchart-crossStart"><path style="stroke-width: 2; stroke-dasharray: 1, 0;" class="arrowMarkerPath" d="M 1,1 l 9,9 M 10,1 l -9,9"/></marker><g class="root"><g class="clusters"/><g class="edgePaths"><path marker-end="url(#my-svg_flowchart-pointEnd)" style="fill:none;" class="edge-thickness-normal edge-pattern-solid flowchart-link LS-A LE-B" id="L-A-B-0" d="M200.6163449754902,33.5C218.37443831699346,39.208333333333336,236.13253165849673,44.916666666666664,253.890625,67.75C253.890625,67.75,253.890625,96.7,253.890625,96.7"/><path marker-end="url(#my-svg_flowchart-pointEnd)" style="fill:none;" class="edge-thickness-normal edge-pattern-solid flowchart-link LS-A LE-C" id="L-A-C-0" d="M120.31744025735294,33.5C83.3444393382353,39.20833333333333,46.371438419117645,44.91666666666667,9.3984375,67.75C9.3984375,67.75,9.3984375,118.75,9.3984375,118.75C9.3984375,118.75,9.3984375,169.75,9.3984375,169.75C9.3984375,169.75,9.3984375,220.75,9.3984375,220.75C9.3984375,220.75,9.3984375,271.75,9.3984375,271.75C9.3984375,271.75,9.3984375,322.75,9.3984375,322.75C9.3984375,322.75,9.3984375,373.75,9.3984375,373.75C9.3984375,373.75,9.3984375,424.75,9.3984375,424.75C9.3984375,424.75,9.3984375,475.75,9.3984375,475.75C25.84417059572689,507.644755094743,42.28990369145377,515.6184438684287,58.73563678718067,523.5921326421145"/><path marker-end="url(#my-svg_flowchart-pointEnd)" style="fill:none;" class="edge-thickness-normal edge-pattern-solid flowchart-link LS-B LE-D" id="L-B-D-0" d="M288.34256280637254,135.5C311.824729370915,141.20833333333334,335.30689593545753,146.91666666666666,358.7890625,169.75C358.7890625,169.75,358.7890625,198.7,358.7890625,198.7"/><path marker-end="url(#my-svg_flowchart-pointEnd)" style="fill:none;" class="edge-thickness-normal edge-pattern-solid flowchart-link LS-B LE-C" id="L-B-C-0" d="M204.78949333639707,135.5C171.32255284926472,141.20833333333334,137.85561236213235,146.91666666666666,104.388671875,169.75C104.388671875,169.75,104.388671875,220.75,104.388671875,220.75C104.388671875,220.75,104.388671875,271.75,104.388671875,271.75C104.388671875,271.75,104.388671875,322.75,104.388671875,322.75C104.388671875,322.75,104.388671875,373.75,104.388671875,373.75C104.388671875,373.75,104.388671875,424.75,104.388671875,424.75C104.388671875,424.75,104.388671875,475.75,104.388671875,475.75C104.28089745872174,495.05258413005214,104.17312304244348,499.87823016256516,104.06534862616522,504.7038761950782"/><path marker-end="url(#my-svg_flowchart-pointEnd)" style="fill:none;" class="edge-thickness-normal edge-pattern-solid flowchart-link LS-D LE-E" id="L-D-E-0" d="M388.5307042738971,237.5C408.80237055759807,243.20833333333334,429.074036841299,248.91666666666666,449.345703125,271.75C449.345703125,271.75,449.345703125,300.7,449.345703125,300.7"/><path marker-end="url(#my-svg_flowchart-pointEnd)" style="fill:none;" class="edge-thickness-normal edge-pattern-solid flowchart-link LS-D LE-C" id="L-D-C-0" d="M314.83185891544116,237.5C284.8709788602941,243.20833333333334,254.91009880514704,248.91666666666666,224.94921875,271.75C224.94921875,271.75,224.94921875,322.75,224.94921875,322.75C224.94921875,322.75,224.94921875,373.75,224.94921875,373.75C224.94921875,373.75,224.94921875,424.75,224.94921875,424.75C224.94921875,424.75,224.94921875,475.75,224.94921875,475.75C201.0070126783001,511.6402315409726,177.06480660660017,520.6127894262157,153.12260053490027,529.5853473114589"/><path marker-end="url(#my-svg_flowchart-pointEnd)" style="fill:none;" class="edge-thickness-normal edge-pattern-solid flowchart-link LS-E LE-C" id="L-E-C-0" d="M410.5324276194853,339.5C384.07760799632354,345.2083333333333,357.62278837316177,350.9166666666667,331.16796875,373.75C331.16796875,373.75,331.16796875,424.75,331.16796875,424.75C331.16796875,424.75,331.16796875,475.75,331.16796875,475.75C274.47817444444786,521.1049462089279,217.78838013889572,532.4436827611598,161.09858583334358,543.7824193133919"/><path marker-end="url(#my-svg_flowchart-pointEnd)" style="fill:none;" class="edge-thickness-normal edge-pattern-solid flowchart-link LS-E LE-F" id="L-E-F-0" d="M488.1589786305147,339.5C514.6137982536765,345.2083333333333,541.0686178768383,350.9166666666667,567.5234375,373.75C567.5234375,373.75,567.5234375,402.7,567.5234375,402.7"/><path marker-end="url(#my-svg_flowchart-pointEnd)" style="fill:none;" class="edge-thickness-normal edge-pattern-solid flowchart-link LS-F LE-C" id="L-F-C-0" d="M533.8540900735294,441.5C510.9053308823529,453.4405609316247,487.95657169117646,465.3811218632494,465.0078125,475.75C364.5590481743669,521.1355037478511,264.11028384873384,536.409279502033,163.66151952310076,551.6830552562147"/><path marker-end="url(#my-svg_flowchart-pointEnd)" style="fill:none;" class="edge-thickness-normal edge-pattern-solid flowchart-link LS-F LE-G" id="L-F-G-0" d="M574.2107364430148,441.5C578.7687461703432,447.2083333333333,583.3267558976715,452.9166666666667,587.884765625,475.75C587.884765625,475.75,587.884765625,515.590625,587.884765625,515.590625"/></g><g class="edgeLabels"><g transform="translate(253.890625, 67.75)" class="edgeLabel"><g transform="translate(-11.32421875, -9.25)" class="label"><rect height="18.500226974487305" width="22.64871597290039" ry="0" rx="0"/><text style=""><tspan class="row" x="0" dy="1em" xml:space="preserve">Yes</tspan></text></g></g><g transform="translate(9.3984375, 271.75)" class="edgeLabel"><g transform="translate(-9.3984375, -9.25)" class="label"><rect height="18.500226974487305" width="18.79710578918457" ry="0" rx="0"/><text style=""><tspan class="row" x="0" dy="1em" xml:space="preserve">No</tspan></text></g></g><g transform="translate(358.7890625, 169.75)" class="edgeLabel"><g transform="translate(-9.3984375, -9.25)" class="label"><rect height="18.500226974487305" width="18.79710578918457" ry="0" rx="0"/><text style=""><tspan class="row" x="0" dy="1em" xml:space="preserve">No</tspan></text></g></g><g transform="translate(104.388671875, 322.75)" class="edgeLabel"><g transform="translate(-11.32421875, -9.25)" class="label"><rect height="18.500226974487305" width="22.64871597290039" ry="0" rx="0"/><text style=""><tspan class="row" x="0" dy="1em" xml:space="preserve">Yes</tspan></text></g></g><g transform="translate(449.345703125, 271.75)" class="edgeLabel"><g transform="translate(-9.3984375, -9.25)" class="label"><rect height="18.500226974487305" width="18.79710578918457" ry="0" rx="0"/><text style=""><tspan class="row" x="0" dy="1em" xml:space="preserve">No</tspan></text></g></g><g transform="translate(224.94921875, 373.75)" class="edgeLabel"><g transform="translate(-11.32421875, -9.25)" class="label"><rect height="18.500226974487305" width="22.64871597290039" ry="0" rx="0"/><text style=""><tspan class="row" x="0" dy="1em" xml:space="preserve">Yes</tspan></text></g></g><g transform="translate(331.16796875, 424.75)" class="edgeLabel"><g transform="translate(-11.32421875, -9.25)" class="label"><rect height="18.500226974487305" width="22.64871597290039" ry="0" rx="0"/><text style=""><tspan class="row" x="0" dy="1em" xml:space="preserve">Yes</tspan></text></g></g><g transform="translate(567.5234375, 373.75)" class="edgeLabel"><g transform="translate(-9.3984375, -9.25)" class="label"><rect height="18.500226974487305" width="18.79710578918457" ry="0" rx="0"/><text style=""><tspan class="row" x="0" dy="1em" xml:space="preserve">No</tspan></text></g></g><g transform="translate(465.0078125, 475.75)" class="edgeLabel"><g transform="translate(-11.32421875, -9.25)" class="label"><rect height="18.500226974487305" width="22.64871597290039" ry="0" rx="0"/><text style=""><tspan class="row" x="0" dy="1em" xml:space="preserve">Yes</tspan></text></g></g><g transform="translate(587.884765625, 475.75)" class="edgeLabel"><g transform="translate(-9.3984375, -9.25)" class="label"><rect height="18.500226974487305" width="18.79710578918457" ry="0" rx="0"/><text style=""><tspan class="row" x="0" dy="1em" xml:space="preserve">No</tspan></text></g></g></g><g class="nodes"><g transform="translate(174.5625, 16.75)" id="flowchart-A-0" class="node default default flowchart-label"><rect height="33.5" width="261.578125" y="-16.75" x="-130.7890625" ry="0" rx="0" style="" class="basic label-container"/><g transform="translate(0, -9.25)" style="" class="label"><rect/><text style=""><tspan class="row" x="0" dy="1em" xml:space="preserve">Do I have a data managment plan?</tspan></text></g></g><g transform="translate(253.890625, 118.75)" id="flowchart-B-2" class="node default default flowchart-label"><rect height="33.5" width="247.3125" y="-16.75" x="-123.65625" ry="0" rx="0" style="" class="basic label-container"/><g transform="translate(0, -9.25)" style="" class="label"><rect/><text style=""><tspan class="row" x="0" dy="1em" xml:space="preserve">Am I starting a new experiment?</tspan></text></g></g><g transform="translate(103.37109375, 566.875)" id="flowchart-C-4" class="node default default flowchart-label"><circle height="49.5" width="113.75" r="56.875" ry="0" rx="0" style=""/><g transform="translate(0, -17.25)" style="" class="label"><rect/><text style=""><tspan class="row" x="0" dy="1em" xml:space="preserve">Write|Update</tspan><tspan class="row" x="0" dy="1em" xml:space="preserve">my DMP</tspan></text></g></g><g transform="translate(358.7890625, 220.75)" id="flowchart-D-6" class="node default default flowchart-label"><rect height="33.5" width="349.59375" y="-16.75" x="-174.796875" ry="0" rx="0" style="" class="basic label-container"/><g transform="translate(0, -9.25)" style="" class="label"><rect/><text style=""><tspan class="row" x="0" dy="1em" xml:space="preserve">Am I changing where I store my research data?</tspan></text></g></g><g transform="translate(449.345703125, 322.75)" id="flowchart-E-10" class="node default default flowchart-label"><rect height="33.5" width="292.2265625" y="-16.75" x="-146.11328125" ry="0" rx="0" style="" class="basic label-container"/><g transform="translate(0, -9.25)" style="" class="label"><rect/><text style=""><tspan class="row" x="0" dy="1em" xml:space="preserve">Am I changing my processing methods?</tspan></text></g></g><g transform="translate(567.5234375, 424.75)" id="flowchart-F-16" class="node default default flowchart-label"><rect height="33.5" width="380.0625" y="-16.75" x="-190.03125" ry="0" rx="0" style="" class="basic label-container"/><g transform="translate(0, -9.25)" style="" class="label"><rect/><text style=""><tspan class="row" x="0" dy="1em" xml:space="preserve">Is my data retention/preservation policy changing?</tspan></text></g></g><g transform="translate(587.884765625, 566.875)" id="flowchart-G-20" class="node default default flowchart-label"><circle height="33.5" width="91.96875" r="45.984375" ry="0" rx="0" style=""/><g transform="translate(0, -9.25)" style="" class="label"><rect/><text style=""><tspan class="row" x="0" dy="1em" xml:space="preserve">Do nothing</tspan></text></g></g></g></g></g></svg>